<?xml version="1.0" encoding="UTF-8"?><svg xmlns="http://www.w3.org/2000/svg" viewBox="0 0 24.74 50.43"><defs><style>.d{fill:#fff;stroke:#000;stroke-miterlimit:10;stroke-width:.43px;}</style></defs><g id="a"/><g id="b"><g id="c"><path class="d" d="M.39,38.85h0c.54-6.77,4.06-9.8,4.06-14.61V8.5c0-2.56,1.42-9.01,1.67-6.34,.87,9.1,4.08,20.96,7.16,20.34C16.35,21.89,19.04-.24,19.57,.22c2.54,2.25,.4,22.29,.8,26.07,.4,3.78,3.32,8.09,3.87,12.62v.02c.13,.62,.22,1.28,.27,2,.28,4.22-3.22,8.37-5.1,8.37-2.6,0-3.8-1.92-5.23-1.71-1.43,.21-3.65,2.57-6.42,2.61-2.77,.04-7.54-5.88-7.54-9.35,0-.69,.06-1.36,.17-2.01Z"/></g></g></svg>